<?xml version="1.0" encoding="UTF-8" standalone="no"?>
<svg width="112" height="29" viewBox="0 0 112 29" fill="none" xmlns="http://www.w3.org/2000/svg">
  
  <defs
     id="defs38">
    <clipPath
       clipPathUnits="userSpaceOnUse"
       id="clipPath18">
      <path
         d="M 0,298.47 H 822.027 V 0 H 0 Z"
         id="path16" />
    </clipPath>
  </defs>
  
  <path
     d="m 33.342593,19.889941 c 0,1.865031 1.383145,3.03872 2.996891,3.03872 1.634584,0 2.933916,-1.23651 2.933916,-3.03872 0,-1.865185 -1.299332,-3.017882 -2.933916,-3.017882 -1.613746,0 -2.996891,1.215518 -2.996891,3.017882 m -0.167626,-9.472406 v 5.721198 c 0.607836,-1.068885 2.305242,-1.655729 3.394964,-1.655729 3.017883,0 5.260149,1.844193 5.260149,5.406937 0,3.394964 -2.28425,5.406783 -5.32297,5.406783 -1.257349,0 -2.535689,-0.419218 -3.332143,-1.655575 l -0.167626,1.425128 H 30.618286 V 10.417535 Z"
     style="fill:#1b296d;fill-opacity:1;fill-rule:nonzero;stroke:none;stroke-width:0.153223"
     id="path22" />
  <path
     d="M 45.414398,25.066185 H 42.878555 V 10.417444 h 2.535843 z"
     style="fill:#1b296d;fill-opacity:1;fill-rule:nonzero;stroke:none;stroke-width:0.153223"
     id="path24" />
  <path
     d="m 54.614418,18.695367 c -0.167626,-1.341315 -1.215519,-2.011819 -2.682477,-2.011819 -1.382991,0 -2.51485,0.670504 -2.891932,2.011819 z m -5.616239,2.116624 c 0.167473,1.278341 1.278187,2.200437 3.08055,2.200437 0.942935,0 2.179446,-0.356243 2.76629,-0.963926 l 1.634584,1.613592 c -1.089569,1.131706 -2.871094,1.676567 -4.442704,1.676567 -3.562743,0 -5.679367,-2.200437 -5.679367,-5.511588 0,-3.143525 2.137462,-5.406936 5.490596,-5.406936 3.457939,0 5.616546,2.137615 5.21832,6.391854 z"
     style="fill:#1b296d;fill-opacity:1;fill-rule:nonzero;stroke:none;stroke-width:0.153223"
     id="path28" />
  <path
     d="m 65.80568,25.066246 v -5.406937 c 0,-1.571609 -0.859122,-2.766136 -2.493706,-2.766136 -1.571762,0 -2.640647,1.32017 -2.640647,2.891932 v 5.281141 H 58.135485 V 14.713727 h 2.284557 l 0.167472,1.403984 c 1.04774,-1.026902 2.095633,-1.550771 3.395118,-1.550771 2.430884,0 4.379882,1.823201 4.379882,5.071531 v 5.427775 z"
     style="fill:#1b296d;fill-opacity:1;fill-rule:nonzero;stroke:none;stroke-width:0.153223"
     id="path32" />
  <path
     d="m 71.799783,19.889941 c 0,1.80221 1.299332,3.03872 2.933916,3.03872 1.613746,0 2.996891,-1.173689 2.996891,-3.03872 0,-1.802364 -1.383145,-3.017882 -2.996891,-3.017882 -1.634584,0 -2.933916,1.152697 -2.933916,3.017882 m 8.655114,-9.472406 v 14.648742 h -2.388902 l -0.167779,-1.425128 c -0.796301,1.236357 -2.074641,1.655575 -3.33199,1.655575 -3.03872,0 -5.323277,-2.011819 -5.323277,-5.406783 0,-3.562744 2.242574,-5.406937 5.260303,-5.406937 1.089722,0 2.787281,0.586844 3.394964,1.655729 v -5.721198 z"
     style="fill:#1b296d;fill-opacity:1;fill-rule:nonzero;stroke:none;stroke-width:0.153223"
     id="path36" />
  <path
     d="m 82.322778,18.36436 h 5.104015 v 2.347224 h -5.104015 z"
     style="fill:#1b296d;fill-opacity:1;fill-rule:nonzero;stroke:none;stroke-width:0.153223"
     id="path38" />
  <path
     d="m 97.36112,18.695367 c -0.16778,-1.341315 -1.215519,-2.011819 -2.682477,-2.011819 -1.383145,0 -2.514851,0.670504 -2.892086,2.011819 z m -5.616393,2.116624 c 0.167626,1.278341 1.27834,2.200437 3.08055,2.200437 0.943089,0 2.179599,-0.356243 2.766443,-0.963926 l 1.634584,1.613592 c -1.089722,1.131706 -2.871094,1.676567 -4.442857,1.676567 -3.56259,0 -5.679367,-2.200437 -5.679367,-5.511588 0,-3.143525 2.137616,-5.406936 5.49075,-5.406936 3.457786,0 5.61639,2.137615 5.218166,6.391854 z"
     style="fill:#1b296d;fill-opacity:1;fill-rule:nonzero;stroke:none;stroke-width:0.153223"
     id="path42" />
  <path
     d="m 103.01989,19.889941 c 0,1.80221 1.29918,3.03872 2.93377,3.03872 1.61374,0 2.99689,-1.173689 2.99689,-3.03872 0,-1.802364 -1.38315,-3.017882 -2.99689,-3.017882 -1.63459,0 -2.93377,1.152697 -2.93377,3.017882 m 8.65496,-9.472406 v 14.648742 h -2.3889 l -0.16778,-1.425128 c -0.7963,1.236357 -2.07464,1.655575 -3.33199,1.655575 -3.03872,0 -5.32312,-2.011819 -5.32312,-5.406783 0,-3.562744 2.24242,-5.406937 5.26015,-5.406937 1.08987,0 2.78728,0.586844 3.39496,1.655729 v -5.721198 z"
     style="fill:#1b296d;fill-opacity:1;fill-rule:nonzero;stroke:none;stroke-width:0.153223"
     id="path46" />
  <path
     d="m 16.421829,8.2634025 c -2.682936,0 -5.116119,1.0883437 -6.8820153,2.8465785 0.9292983,0.179731 1.7986863,0.528467 2.5753743,1.012958 1.208777,-0.88471 2.697339,-1.408733 4.306641,-1.408733 4.029614,0 7.307823,3.278208 7.307823,7.307823 0,4.029614 -3.278209,7.307975 -7.307823,7.307975 -1.24647,0 -2.420618,-0.31426 -3.448439,-0.866783 -0.706512,0.589909 -1.521199,1.053562 -2.408973,1.359089 1.632438,1.229003 3.661265,1.958345 5.857412,1.958345 5.380889,0 9.758626,-4.377584 9.758626,-9.758626 0,-5.380889 -4.377737,-9.7586265 -9.758626,-9.7586265"
     style="fill:#633e98;fill-opacity:1;fill-rule:nonzero;stroke:none;stroke-width:0.153223"
     id="path50" />
  <path
     d="m 10.411944,13.871153 c -0.7017616,-0.34613 -1.4907073,-0.54149 -2.3245474,-0.54149 -0.074773,0 -0.1489329,0.0026 -0.2227864,0.0057 -0.7655026,1.391879 -1.2014224,2.98923 -1.2014224,4.686788 0,2.183583 0.7209147,4.201991 1.9373529,5.82968 0.9001857,-0.08734 1.7347923,-0.401598 2.4457473,-0.885323 C 9.8474703,21.664234 9.1138381,19.92745 9.1138381,18.02212 c 0,-1.540964 0.4806609,-2.971149 1.2981059,-4.150967"
     style="fill:#633e98;fill-opacity:1;fill-rule:nonzero;stroke:none;stroke-width:0.153223"
     id="path54" />
  <path
     d="m 8.6004948,23.85183 c -0.1690051,0.01639 -0.3400021,0.02528 -0.5131442,0.02528 -2.907868,0 -5.2737859,-2.365764 -5.2737859,-5.273632 0,-2.833249 2.2460974,-5.150748 5.0509995,-5.268117 0.4510888,-0.82051 1.0166353,-1.569617 1.6751882,-2.225412 -0.470395,-0.09102 -0.9556525,-0.140199 -1.4524018,-0.140199 -4.2091918,0 -7.63357484,3.424383 -7.63357484,7.633728 0,4.209191 3.42438304,7.633574 7.63357484,7.633574 0.8670895,0 1.6997038,-0.147247 2.4770044,-0.414775 C 9.8201506,25.262096 9.1582268,24.59818 8.6004948,23.85183"
     style="fill:#00bdf2;fill-opacity:1;fill-rule:nonzero;stroke:none;stroke-width:0.153223"
     id="path58" />
  <path
     d="m 10.411944,13.871153 c 1.745365,0.860808 2.949238,2.658268 2.949238,4.732296 0,1.812016 -0.918878,3.413198 -2.314894,4.363028 0.552369,0.599868 1.203261,1.107496 1.927087,1.496683 1.677946,-1.401532 2.74775,-3.507736 2.74775,-5.859711 0,-2.731508 -1.443056,-5.131288 -3.605953,-6.480571 -0.660391,0.483572 -1.236663,1.07486 -1.703228,1.748275"
     style="fill:#00bdf2;fill-opacity:1;fill-rule:nonzero;stroke:none;stroke-width:0.153223"
     id="path62" />
  <path
     d="m 11.046303,22.966461 c -0.710955,0.483726 -1.5455612,0.797986 -2.445747,0.885323 0.5575789,0.74635 1.2196559,1.410266 1.963861,1.970603 0.887774,-0.305527 1.702461,-0.76918 2.408973,-1.359242 -0.723826,-0.389034 -1.374871,-0.896662 -1.927087,-1.496684"
     style="fill:#1b296d;fill-opacity:1;fill-rule:nonzero;stroke:none;stroke-width:0.153223"
     id="path66" />
  <path
     d="m 7.8645336,13.335317 c 0.074007,-0.0031 0.1481667,-0.0057 0.2229396,-0.0057 0.8338401,0 1.6227858,0.195359 2.3243948,0.54149 0.466564,-0.673415 1.042836,-1.264703 1.703381,-1.748275 C 11.338408,11.638371 10.469173,11.289789 9.5398749,11.110058 8.8811688,11.7657 8.3156224,12.514961 7.8645336,13.335317"
     style="fill:#1b296d;fill-opacity:1;fill-rule:nonzero;stroke:none;stroke-width:0.153223"
     id="path70" />
  <path
     d="m 16.137677,6.711038 c 0,0 -0.05102,-5.4395732 4.826528,-5.4826289 0,0 0.789252,5.1375705 -4.826528,5.4826289"
     style="fill:#633e98;fill-opacity:1;fill-rule:nonzero;stroke:none;stroke-width:0.153223"
     id="path74" />
  <path
     d="m 6.4606116,9.744074 c 0,0 -4.1731844,-1.2041804 -3.0912761,-4.945582 0,0 4.1108226,0.5702963 3.0912761,4.945582"
     style="fill:#00bdf2;fill-opacity:1;fill-rule:nonzero;stroke:none;stroke-width:0.153223"
     id="path78" />
</svg>
